<svg xmlns="http://www.w3.org/2000/svg" xmlns:xlink="http://www.w3.org/1999/xlink" viewBox="0,0,255.99704,255.99704" width="30px" height="30px"><g fill="none" fill-rule="nonzero" stroke="none" stroke-width="1" stroke-linecap="butt" stroke-linejoin="miter" stroke-miterlimit="10" stroke-dasharray="" stroke-dashoffset="0" font-family="none" font-weight="none" font-size="none" text-anchor="none" style="mix-blend-mode: normal"><g transform="scale(3.2,3.2)"><path d="M40,77.5c-20.678,0 -37.5,-16.822 -37.5,-37.5c0,-20.678 16.822,-37.5 37.5,-37.5c20.678,0 37.5,16.822 37.5,37.5c0,20.678 -16.822,37.5 -37.5,37.5z" fill="#60b566"></path><path d="M40,3c20.402,0 37,16.598 37,37c0,20.402 -16.598,37 -37,37c-20.402,0 -37,-16.598 -37,-37c0,-20.402 16.598,-37 37,-37M40,2c-20.987,0 -38,17.013 -38,38c0,20.987 17.013,38 38,38c20.987,0 38,-17.013 38,-38c0,-20.987 -17.013,-38 -38,-38z" fill="#40e881"></path><path d="M20,36h40v8h-40z" fill="#ffffff"></path><path transform="translate(80,0) rotate(90)" d="M20,36h40v8h-40z" fill="#ffffff"></path></g></g></svg>